<?xml version="1.0" encoding="utf-8"?>
<!-- Generator: Adobe Illustrator 22.0.1, SVG Export Plug-In . SVG Version: 6.00 Build 0)  -->
<svg version="1.1" id="Layer_1" xmlns="http://www.w3.org/2000/svg" xmlns:xlink="http://www.w3.org/1999/xlink" x="0px" y="0px"
	 viewBox="0 0 650 650" style="enable-background:new 0 0 650 650;" xml:space="preserve">
<style type="text/css">
	.st0{fill:#FFFFFF;}
	.st1{fill:#27AAE1;}
</style>
<path class="st0" d="M340,75.5c-0.9,0-1.8-0.1-2.7-0.2c-1.5-0.1-3.1-0.1-4.6-0.1c-2.8-0.1-5.5-0.2-8.3-0.2
	C186.6,75.4,75,187.1,75,325c0,75.7,33.7,143.6,87,189.4l49.9-102C193.2,388.2,182,357.9,182,325c0-66.7,45.6-122.7,107.3-138.5
	v38.6h71.3v-38.6C422.4,202.4,468,258.3,468,325c0,32.9-11.1,63.2-29.8,87.4l49.9,102C541.3,468.6,575,400.8,575,325
	C575,192,471.1,83.2,340,75.5z"/>
<path class="st1" d="M340.7,574.5c47.2-2.7,91-17.8,128.4-41.9L325,237.9L180.8,532.6c41.4,26.7,90.6,42.3,143.5,42.4
	c2.9,0,5.7-0.1,8.6-0.2c1.7-0.1,3.5,0,5.2-0.1C339,574.6,339.9,574.5,340.7,574.5z"/>
</svg>
