<?xml version="1.0" encoding="utf-8"?>
<!-- Generator: Adobe Illustrator 22.0.1, SVG Export Plug-In . SVG Version: 6.00 Build 0)  -->
<svg version="1.1" id="Layer_1" xmlns="http://www.w3.org/2000/svg" xmlns:xlink="http://www.w3.org/1999/xlink" x="0px" y="0px"
	 viewBox="0 0 800 230" style="enable-background:new 0 0 800 230;" xml:space="preserve">
<style type="text/css">
	.st0{fill:#FFFFFF;}
	.st1{fill:url(#SVGID_1_);}
	.st2{fill:#27AAE1;}
</style>
<g>
	<g>
		<path class="st0" d="M144.2,26.3c-0.3,0-0.6,0-1-0.1c-0.5,0-1.1,0-1.6,0c-1,0-2-0.1-3-0.1C89.7,26.3,50,66,50,115
			c0,26.9,12,51,30.9,67.3l17.7-36.3C92,137.5,88,126.7,88,115c0-23.7,16.2-43.6,38.2-49.2v13.7h25.3V65.8
			c21.9,5.6,38.2,25.5,38.2,49.2c0,11.7-4,22.5-10.6,31.1l17.7,36.3c18.9-16.3,30.9-40.4,30.9-67.3
			C227.7,67.7,190.8,29.1,144.2,26.3z"/>
		<linearGradient id="SVGID_1_" gradientUnits="userSpaceOnUse" x1="138.8498" y1="203.8432" x2="138.8498" y2="84.0353">
			<stop  offset="0" style="stop-color:#FFFFFF;stop-opacity:0"/>
			<stop  offset="1" style="stop-color:#23B3FF"/>
		</linearGradient>
		<path class="st1" d="M144.4,203.7c16.8-1,32.3-6.3,45.6-14.9L138.8,84L87.6,188.8c14.7,9.5,32.2,15,51,15.1c1,0,2,0,3.1-0.1
			c0.6,0,1.2,0,1.9,0C143.8,203.7,144.1,203.7,144.4,203.7z"/>
	</g>
	<g>
		<path class="st0" d="M311.8,165.1c18.3,0,32.1-9.5,41.3-28.5h45.6c-4.8,20.2-15.2,36.4-31.2,48.7c-16,12.3-34.4,18.5-55.3,18.5
			c-25.1,0-46.4-8.6-63.8-25.9c-17.4-17.3-26.2-38.4-26.2-63.3c0-24.8,8.6-45.7,25.9-62.8c17.3-17.1,38.5-25.6,63.6-25.6
			c33.2,0,58.5,13.8,75.9,41.3c6,9.4,9.7,18.5,11,27.2h-45.6c-3.4-9.2-8.8-16.4-16.3-21.7c-7.4-5.3-15.9-8-25.3-8
			c-13,0-23.8,4.8-32.6,14.3c-8.7,9.5-13.1,21.3-13.1,35.5c0,14.3,4.4,26.3,13.2,36C288,160.3,298.8,165.1,311.8,165.1z"/>
		<path class="st0" d="M445.8,200.5H404v-171h54.1c14.5,0,25.5,0.9,33,2.6c7.4,1.7,14,5,19.6,9.7c14,11.6,21,27.3,21,46.9
			c0,14.2-3.8,26.1-11.5,35.8c-7.7,9.7-18,15.6-31,17.8l46.4,58.2h-50l-39.7-55.4V200.5z M445.8,68.2v47.2h15.4c19,0,28.5-8,28.5-24
			c0-15.5-9.3-23.2-28-23.2H445.8z"/>
		<g>
			<path class="st2" d="M548.3,170.4h30.7v30.1h-30.7V170.4z"/>
			<path class="st2" d="M599.2,69.4h29.5v22.4h-29.5V69.4z M599.2,102.2h29.5v98.3h-29.5V102.2z"/>
			<path class="st2" d="M697.1,203.8c-15.3,0-28.1-4.9-38.1-14.8c-10.1-9.8-15.1-22.2-15.1-37.2c0-15.3,5-28,15-38
				c10-10,22.7-15,38.1-15c15.2,0,27.9,5,37.9,14.9c10.1,10,15.1,22.5,15.1,37.6c0,15.1-5,27.6-15,37.6
				C724.9,198.9,712.3,203.8,697.1,203.8z M697.1,126.2c-6.7,0-12.3,2.4-16.9,7.2c-4.6,4.8-6.9,10.7-6.9,17.7
				c0,7.3,2.3,13.3,6.8,18.1c4.5,4.8,10.2,7.2,17,7.2c6.7,0,12.3-2.4,16.7-7.2c4.5-4.8,6.7-10.8,6.7-17.9c0-7-2.3-12.9-6.8-17.8
				C709.2,128.6,703.7,126.2,697.1,126.2z"/>
		</g>
	</g>
</g>
</svg>
